<?xml version="1.0" encoding="UTF-8" standalone="no"?>
<svg
   xmlns:dc="http://purl.org/dc/elements/1.1/"
   xmlns:cc="http://creativecommons.org/ns#"
   xmlns:rdf="http://www.w3.org/1999/02/22-rdf-syntax-ns#"
   xmlns:svg="http://www.w3.org/2000/svg"
   xmlns="http://www.w3.org/2000/svg"
   xmlns:sodipodi="http://sodipodi.sourceforge.net/DTD/sodipodi-0.dtd"
   xmlns:inkscape="http://www.inkscape.org/namespaces/inkscape"
   width="122.36596mm"
   height="109.64272mm"
   viewBox="0 0 122.36596 109.64272"
   version="1.1"
   id="svg1055"
   inkscape:version="1.0.1 (3bc2e813f5, 2020-09-07)"
   sodipodi:docname="smashuplogo2.svg">
  <defs
     id="defs1049">
    <filter
       inkscape:label="Cross Noise"
       inkscape:menu="Overlays"
       inkscape:menu-tooltip="Adds a small scale screen like graininess"
       style="color-interpolation-filters:sRGB"
       id="filter889">
      <feTurbulence
         type="fractalNoise"
         numOctaves="3"
         baseFrequency="1"
         seed="0"
         result="result0"
         id="feTurbulence879" />
      <feColorMatrix
         result="result4"
         values="0"
         type="saturate"
         id="feColorMatrix881" />
      <feComposite
         in="SourceGraphic"
         in2="result4"
         operator="arithmetic"
         k1="1.25"
         k2="0.5"
         k3="0.5"
         result="result2"
         id="feComposite883"
         k4="0" />
      <feBlend
         result="result5"
         mode="normal"
         in="result2"
         in2="SourceGraphic"
         id="feBlend885" />
      <feComposite
         in="result5"
         in2="SourceGraphic"
         operator="in"
         result="fbSourceGraphic"
         id="feComposite887" />
      <feColorMatrix
         result="fbSourceGraphicAlpha"
         in="fbSourceGraphic"
         values="0 0 0 -1 0 0 0 0 -1 0 0 0 0 -1 0 0 0 0 1 0"
         id="feColorMatrix891" />
      <feTurbulence
         id="feTurbulence893"
         type="fractalNoise"
         numOctaves="5"
         baseFrequency="1"
         seed="0"
         result="result0" />
      <feConvolveMatrix
         id="feConvolveMatrix895"
         kernelMatrix="-2 0 -2 0 -10 0 -2 0 -2 "
         order="3 3"
         result="result5" />
      <feColorMatrix
         id="feColorMatrix897"
         result="result4"
         values="0"
         type="saturate"
         in="result5" />
      <feComposite
         in2="result4"
         id="feComposite899"
         in="fbSourceGraphic"
         operator="arithmetic"
         k1="1.5"
         k2="0.5"
         k3="0.5"
         result="result2"
         k4="0" />
      <feBlend
         in2="result4"
         id="feBlend901"
         result="result6"
         mode="normal" />
      <feComposite
         in2="fbSourceGraphic"
         id="feComposite903"
         in="result6"
         operator="in"
         result="result3" />
    </filter>
    <filter
       y="-0.25"
       height="1.5"
       inkscape:menu-tooltip="Darkens the edge with an inner blur and adds a flexible glow"
       inkscape:menu="Shadows and Glows"
       inkscape:label="Dark and Glow"
       style="color-interpolation-filters:sRGB"
       id="filter1275">
      <feGaussianBlur
         stdDeviation="5"
         result="result6"
         id="feGaussianBlur1265" />
      <feComposite
         result="result8"
         in="SourceGraphic"
         operator="atop"
         in2="result6"
         id="feComposite1267" />
      <feComposite
         result="result9"
         operator="over"
         in2="SourceAlpha"
         in="result8"
         id="feComposite1269" />
      <feColorMatrix
         values="1 0 0 0 0 0 1 0 0 0 0 0 1 0 0 0 0 0 1 0 "
         result="result10"
         id="feColorMatrix1271" />
      <feBlend
         in="result10"
         mode="normal"
         in2="result6"
         id="feBlend1273" />
    </filter>
  </defs>
  <sodipodi:namedview
     id="base"
     pagecolor="#ffffff"
     bordercolor="#666666"
     borderopacity="1.0"
     inkscape:pageopacity="0.0"
     inkscape:pageshadow="2"
     inkscape:zoom="0.35"
     inkscape:cx="94.099908"
     inkscape:cy="590.05597"
     inkscape:document-units="mm"
     inkscape:current-layer="layer1"
     inkscape:document-rotation="0"
     showgrid="false"
     fit-margin-top="0"
     fit-margin-left="0"
     fit-margin-right="0"
     fit-margin-bottom="0"
     inkscape:window-width="1208"
     inkscape:window-height="656"
     inkscape:window-x="72"
     inkscape:window-y="27"
     inkscape:window-maximized="1" />
  <metadata
     id="metadata1052">
    <rdf:RDF>
      <cc:Work
         rdf:about="">
        <dc:format>image/svg+xml</dc:format>
        <dc:type
           rdf:resource="http://purl.org/dc/dcmitype/StillImage" />
        <dc:title></dc:title>
      </cc:Work>
    </rdf:RDF>
  </metadata>
  <g
     inkscape:label="Layer 1"
     inkscape:groupmode="layer"
     id="layer1"
     transform="translate(-80.936066,7.9523093)">
    <g
       id="g1985">
      <path
         style="fill:#cccccc;stroke:#000000;stroke-width:1.20675;filter:url(#filter889)"
         d="m 174.65935,386.16949 c -43.60702,-1.79164 -99.342221,-6.41168 -108.176941,-8.96706 -6.9278,-2.00382 -12.27619,-5.22367 -17.55291,-10.56725 -5.37717,-5.44527 -8.21796,-10.42219 -9.54448,-16.7214 -1.12546,-5.34445 -1.12637,-199.22186 -9.6e-4,-204.57254 2.6099,-12.40859 13.50116,-23.39023 27.06101,-27.2856 4.47479,-1.28548 15.82657,-2.60911 40.000001,-4.66404 87.06712,-7.40138 182.38842,-6.6546 272.09176,2.13167 15.46335,1.5146 21.00251,2.8716 27.66905,6.77846 7.89965,4.6295 14.11025,12.51978 16.40429,20.84087 1.27416,4.62172 1.3349,9.37618 1.3349,104.48491 0,95.10872 -0.0607,99.86318 -1.3349,104.4849 -3.50741,12.72232 -15.02622,22.71385 -29.73653,25.79377 -8.74214,1.83035 -50.36559,5.25233 -92.85714,7.63403 -17.33647,0.97174 -106.16867,1.41767 -125.35715,0.62928 z"
         id="path2721"
         transform="matrix(0.26458333,0,0,0.26458333,80.936066,-7.9523093)" />
      <path
         id="path2725"
         style="fill:#000000;stroke:#000000;stroke-width:0.447"
         d="m 141.88824,15.743499 c -15.49106,-0.013 -30.89116,0.77716 -46.195633,2.40864 -6.04425,0.644321 -10.97194,4.893439 -10.97194,10.97194 v 56.550552 c 0,6.078498 4.92836,10.32134 10.97194,10.97194 30.454973,3.27854 61.441853,3.23005 92.937483,0 6.04678,-0.62013 10.97194,-4.893442 10.97194,-10.97194 V 29.124079 c 0,-6.078501 -4.9241,-10.36224 -10.97194,-10.97194 -15.66883,-1.57963 -31.25079,-2.39568 -46.74185,-2.40864 z m 0.0289,4.464331 c 13.83465,0.01159 27.75082,0.739838 41.74422,2.15025 5.40117,0.544399 9.79889,4.36949 9.79889,9.79682 v 50.49253 c 0,5.42734 -4.39867,9.24261 -9.79889,9.796301 -28.12788,2.88403 -55.80159,2.92733 -83.0001,0 C 95.263897,91.86283 90.862377,88.07477 90.862377,82.64743 V 32.1549 c 0,-5.42733 4.40092,-9.22151 9.798883,-9.79682 13.66801,-1.456701 27.42124,-2.161831 41.25588,-2.15025 z" />
      <path
         id="path2727"
         style="fill:#000000;stroke:#000000;stroke-width:0.447"
         d="m 140.77691,9.3126467 a 9.2604169,7.9375 0 0 0 -9.22993,7.9375023 h 18.52083 v -0.0351 a 9.2604169,7.9375 0 0 0 -9.2909,-7.9023623 z" />
      <path
         style="fill:none;stroke:#000000;stroke-width:1.765;stroke-linecap:round;stroke-linejoin:miter;stroke-miterlimit:4;stroke-dasharray:none;stroke-opacity:1"
         d="M 137.9419,11.017351 126.63266,-7.0698093"
         id="path2729" />
      <path
         style="fill:none;stroke:#000000;stroke-width:1.765;stroke-linecap:round;stroke-linejoin:miter;stroke-miterlimit:4;stroke-dasharray:none;stroke-opacity:1"
         d="M 144.09517,11.017351 155.40441,-7.0698093"
         id="path2731" />
      <path
         id="path2733"
         style="fill:#000000;stroke:#000000;stroke-width:0.447"
         d="m 141.88824,15.743499 c -15.49106,-0.013 -30.89116,0.77716 -46.195633,2.40864 -6.04425,0.644321 -10.97194,4.893439 -10.97194,10.97194 v 56.550552 c 0,6.078498 4.92836,10.32134 10.97194,10.97194 30.454973,3.27854 61.441853,3.23005 92.937483,0 6.04678,-0.62013 10.97194,-4.893442 10.97194,-10.97194 V 29.124079 c 0,-6.078501 -4.9241,-10.36224 -10.97194,-10.97194 -15.66883,-1.57963 -31.25079,-2.39568 -46.74185,-2.40864 z m 0.0289,4.464331 c 13.83465,0.01159 27.75082,0.739838 41.74422,2.15025 5.40117,0.544399 9.79889,4.36949 9.79889,9.79682 v 50.49253 c 0,5.42734 -4.39867,9.24261 -9.79889,9.796301 -28.12788,2.88403 -55.80159,2.92733 -83.0001,0 C 95.263897,91.86283 90.862377,88.07477 90.862377,82.64743 V 32.1549 c 0,-5.42733 4.40092,-9.22151 9.798883,-9.79682 13.66801,-1.456701 27.42124,-2.161831 41.25588,-2.15025 z" />
      <path
         id="path2735"
         style="fill:#000000;stroke:#000000;stroke-width:0.447"
         d="m 140.77691,9.3126467 a 9.2604169,7.9375 0 0 0 -9.22993,7.9375023 h 18.52083 v -0.0351 a 9.2604169,7.9375 0 0 0 -9.2909,-7.9023623 z" />
      <path
         style="fill:none;stroke:#000000;stroke-width:1.765;stroke-linecap:round;stroke-linejoin:miter;stroke-miterlimit:4;stroke-dasharray:none;stroke-opacity:1"
         d="M 137.9419,11.017351 126.63266,-7.0698093"
         id="path2737" />
      <path
         style="fill:none;stroke:#000000;stroke-width:1.765;stroke-linecap:round;stroke-linejoin:miter;stroke-miterlimit:4;stroke-dasharray:none;stroke-opacity:1"
         d="M 144.09517,11.017351 155.40441,-7.0698093"
         id="path2739" />
      <path
         id="path2723"
         style="fill:none;stroke:#000000;stroke-width:0.779038;stroke-linecap:butt;stroke-linejoin:bevel;stroke-miterlimit:4;stroke-dasharray:none;stroke-opacity:1;filter:url(#filter1275)"
         d="m 140.15324,63.995991 -7.9375,16.46296 6.61459,13.71913 m -46.30209,-66.14583 29.10417,19.50077 21.16667,-5.48766 -2.64584,21.95063 15.87499,-2.74384 13.22918,16.46297 23.8125,8.23148 m -7.9375,-63.20602 -42.33333,19.30478"
         sodipodi:nodetypes="cccccccccccc" />
      <g
         aria-label="TV 
SMASHUP"
         transform="scale(0.73698474,1.3568802)"
         id="text2775"
         style="font-size:43.2517px;line-height:0.3;font-family:Gargi;-inkscape-font-specification:Gargi;text-align:center;word-spacing:-0.655534px;text-anchor:middle;fill:#aa0000;stroke:#aa0000;stroke-width:2.225;stroke-miterlimit:4;stroke-dasharray:none;stroke-opacity:1">
        <path
           d="m 188.70538,21.885605 q 0,0.173007 -0.38926,0.562272 l -0.38927,0.129755 q -3.37363,0 -7.91506,0.692027 -0.17301,1.557062 -0.25951,3.28713 -0.0433,1.730068 -0.21626,3.460136 -0.34601,4.195415 -1.29755,6.487755 -0.34601,0.821782 -1.08129,0.605524 -0.73528,-0.216259 -0.56227,-1.081293 0.86503,-2.378843 1.08129,-5.017197 0.21626,-2.681606 0.30276,-4.281919 0.0865,-1.600312 0.25951,-3.157374 -1.3408,0.25951 -2.72486,0.692028 -1.3408,0.389265 -2.6816,0.432517 -0.25951,0.25951 -0.56227,0.25951 -0.30277,0 -0.51902,-0.173007 -0.56228,-0.51902 -0.17301,-1.254299 0.30276,-0.432517 1.2543,-0.562273 3.7629,-0.735278 7.43929,-1.384054 3.67639,-0.692027 7.5258,-0.735279 h 0.21625 q 0.56228,0.25951 0.60553,0.432517 0.0433,0.173007 0.0433,0.173007 0.0433,0 0.0433,0.04325 v 0.0865 q 0.0865,0.173007 0,0.302762 z"
           style="font-style:normal;font-variant:normal;font-weight:normal;font-stretch:normal;font-size:43.2517px;font-family:Karumbi;-inkscape-font-specification:Karumbi;text-align:center;word-spacing:-4.50763px;text-anchor:middle;fill:#aa0000;stroke:#aa0000;stroke-width:2.225;stroke-miterlimit:4;stroke-dasharray:none;stroke-opacity:1"
           id="path1873" />
        <path
           d="m 201.94039,31.357728 q -1.42731,3.200625 -1.1678,4.022408 -0.0865,0.735279 -0.73527,0.908285 -0.60553,0.173007 -0.95154,-0.562272 v -0.04325 q -0.17301,0 -1.08129,-1.730068 -0.86504,-1.77332 -0.86504,-1.859824 -1.3408,-2.768108 -2.11933,-5.709224 -0.21626,-0.735279 -0.30276,-1.51381 -0.0433,-0.821782 -0.34602,-1.557061 -0.38926,-0.216258 -0.43251,-0.778531 0.12975,-0.994789 0.69202,-1.081292 0.56227,-0.0865 0.99479,0.432517 0.60553,0.951537 0.95154,2.724857 0.69203,3.503388 0.99479,4.368422 0.34601,0.821782 0.86503,1.730068 0.56227,0.908286 1.0813,1.859823 1.08129,-2.595102 2.6816,-5.449714 2.76811,-4.887442 3.89265,-6.011987 0.56228,-0.389265 1.21105,-0.173007 0.51902,0.432518 0.43252,0.908286 -0.0865,0.475769 -0.56227,0.648776 -1.68682,1.77332 -4.02241,6.271496 -0.69203,1.384055 -1.21105,2.595102 z"
           style="font-style:normal;font-variant:normal;font-weight:normal;font-stretch:normal;font-size:43.2517px;font-family:Karumbi;-inkscape-font-specification:Karumbi;text-align:center;word-spacing:-4.50763px;text-anchor:middle;fill:#aa0000;stroke:#aa0000;stroke-width:2.225;stroke-miterlimit:4;stroke-dasharray:none;stroke-opacity:1"
           id="path1875" />
        <path
           d="m 141.1239,43.574178 q 0.73528,0.302762 0.73528,0.908286 0,0.692027 -0.77853,0.821782 -1.2543,0.0865 -2.16259,0.129755 -0.90828,0 -1.77332,0.173007 -1.85982,0.346014 -3.63314,1.427306 0,0.0865 -0.0433,0.129755 1.2543,0.778531 3.20062,1.340803 1.94633,0.562272 3.02762,0.865034 1.0813,0.25951 1.77332,0.519021 0.69203,0.25951 1.2543,0.51902 0.51902,0.25951 0.99479,0.648775 1.1678,0.908286 0.95154,1.946327 -0.60553,2.508599 -4.45493,3.243878 -2.24909,0.432517 -6.01198,0.129755 -0.25951,-0.04325 -0.73528,-0.04325 -0.47577,0 -0.99479,-0.0865 -1.3408,-0.173007 -1.60031,-0.648776 -0.25951,-0.778531 0.0433,-1.038041 0.34601,-0.302762 0.64877,-0.302762 0.30277,0 0.56228,0.173007 1.08129,0 2.6816,0.173007 1.60031,0.129755 3.20063,0.173007 3.89265,-0.04325 4.84419,-1.903075 -0.51902,-0.865034 -4.75769,-2.249089 -4.80094,-1.513809 -6.05524,-2.378843 -0.47577,-0.475769 -0.38926,-0.865034 0.0865,-0.389265 0.12975,-0.648776 0.0865,-0.562272 0.25951,-0.821782 1.85983,-2.03283 6.74727,-2.205837 1.2543,-0.04325 2.33559,-0.129755 z"
           style="font-style:normal;font-variant:normal;font-weight:normal;font-stretch:normal;font-size:43.2517px;font-family:Karumbi;-inkscape-font-specification:Karumbi;text-align:center;word-spacing:-4.50763px;text-anchor:middle;fill:#aa0000;stroke:#aa0000;stroke-width:2.225;stroke-miterlimit:4;stroke-dasharray:none;stroke-opacity:1"
           id="path1877" />
        <path
           d="m 148.64965,57.674233 q 0.0865,-2.854613 0.73528,-5.622721 0.69203,-2.811361 1.08129,-4.325171 0.38927,-1.513809 0.47577,-1.816571 0.0865,-0.346014 0.0865,-0.692027 -0.34602,-0.25951 -0.30277,-0.735279 0.0865,-0.519021 0.69203,-0.735279 0.0865,-0.04325 0.12976,-0.04325 0.0433,0 0.30276,0 0.25951,-0.04325 0.34601,0.04325 0.0865,0.04325 0.0865,0.04325 0,-0.04325 0.0433,-0.04325 1.38405,-0.216259 2.16258,1.686816 0.34602,0.778531 0.51902,1.600313 0.21626,0.821783 0.56227,1.470558 0.34602,0.648776 0.77854,1.427306 0.47576,0.778531 1.16779,1.384055 0.95154,-0.0865 1.90308,-1.859824 0.25951,-0.432517 0.51902,-0.821782 0.25951,-0.432517 0.51902,-0.951537 0.30276,-0.519021 0.51902,-0.865034 0.25951,-0.389266 0.82178,-1.340803 0.64878,-0.994789 1.42731,-1.946327 2.03283,-2.465347 3.28713,-2.03283 1.03804,0.302762 0.95153,1.946327 0,0.432517 -0.0865,0.821782 -0.0433,1.2543 -0.17301,2.03283 -0.0865,0.735279 -0.173,1.427306 -0.0865,0.648776 -0.25951,1.557062 -0.51903,2.422095 -1.34081,4.973945 -0.82178,2.508599 -1.03804,3.200626 -0.21626,0.692027 -0.30276,1.038041 -0.0433,0.346014 -0.12976,0.692027 0.21626,0.389266 0.0433,0.908286 l -0.25951,0.389265 q -0.30277,0.432517 -0.69203,0.432517 -0.38927,0 -0.73528,-0.346013 -0.51902,-1.038041 0.82178,-5.017198 0.73528,-2.162585 1.03804,-3.373632 0.34602,-1.2543 0.64878,-2.378844 0.0433,-0.0865 0.0433,0.0865 0.86503,-3.416885 0.82178,-6.358001 -1.81657,1.816572 -4.36842,6.055239 -1.3408,2.205836 -1.85982,2.724857 -0.47577,0.51902 -1.08129,0.605524 -1.47056,0.25951 -2.3356,-0.389266 -0.86503,-0.692027 -1.4273,-1.816571 -0.56227,-1.124544 -0.99479,-2.422095 -0.38927,-1.297551 -0.95154,-2.335592 -0.0865,0.605524 -0.25951,1.167796 -0.17301,0.562272 -0.51902,1.989578 -0.30276,1.384054 -0.86503,3.762898 -0.56228,2.335592 -0.64878,4.757687 -0.0865,0.865034 -0.82178,0.951537 -0.30276,0 -0.60553,-0.216258 -0.25951,-0.216259 -0.30276,-0.692027 z m 2.16259,-11.461701 0.0433,-0.173007 q 0,0.0865 -0.0433,0.173007 z"
           style="font-style:normal;font-variant:normal;font-weight:normal;font-stretch:normal;font-size:43.2517px;font-family:Karumbi;-inkscape-font-specification:Karumbi;text-align:center;word-spacing:-4.50763px;text-anchor:middle;fill:#aa0000;stroke:#aa0000;stroke-width:2.225;stroke-miterlimit:4;stroke-dasharray:none;stroke-opacity:1"
           id="path1879" />
        <path
           d="m 181.60743,51.532491 q 0.73528,3.200626 0.82178,4.757687 -0.0865,0.821783 -0.82178,0.908286 -0.30276,0 -0.60552,-0.216258 -0.25951,-0.173007 -0.34602,-0.951538 -0.173,-1.859823 -0.64877,-3.849401 -2.33559,0.129755 -3.11412,0.475768 0.0865,0.475769 -0.34602,0.735279 -0.43251,0.259511 -0.99479,0.04325 l -0.21625,-0.216258 q -0.47577,0.865034 -0.90829,1.730068 -0.43252,0.821782 -0.73528,1.340802 -0.25951,0.519021 -0.25951,0.562272 l -0.0433,-0.04325 q -0.51902,0.605524 -0.90829,0.389265 -0.73528,-0.389265 -0.60552,-1.124544 1.12454,-2.508599 2.33559,-4.930694 1.2543,-2.465347 1.94633,-4.06566 0.73528,-1.643565 1.03804,-2.378844 0.34601,-0.77853 0.86503,-1.384054 -0.173,-0.346014 0.0865,-0.735279 0.25951,-0.389265 0.82178,-0.475769 1.08129,0.216259 0.99479,1.167796 0.73528,1.297551 0.86503,2.595102 0.12976,1.297551 0.17301,2.119334 0.0865,0.821782 0.17301,1.340802 0.0865,0.648776 0.21625,1.297551 0.43252,0.389266 0.21626,0.908286 z m -5.14695,-0.605524 q 0.82178,-0.302762 3.15737,-0.432517 -0.0433,-0.129755 -0.0433,-0.25951 0,-0.173007 -0.12975,-0.778531 -0.12976,-0.605523 -0.21626,-1.686816 -0.0865,-1.081292 -0.30276,-2.162585 -0.12976,0.216259 -0.25951,0.432517 -0.17301,0.173007 -0.43252,0.821782 -1.21105,2.897864 -1.77332,4.06566 z"
           style="font-style:normal;font-variant:normal;font-weight:normal;font-stretch:normal;font-size:43.2517px;font-family:Karumbi;-inkscape-font-specification:Karumbi;text-align:center;word-spacing:-4.50763px;text-anchor:middle;fill:#aa0000;stroke:#aa0000;stroke-width:2.225;stroke-miterlimit:4;stroke-dasharray:none;stroke-opacity:1"
           id="path1881" />
        <path
           d="m 197.82675,43.574178 q 0.73528,0.302762 0.73528,0.908286 0,0.692027 -0.77853,0.821782 -1.2543,0.0865 -2.16259,0.129755 -0.90828,0 -1.77332,0.173007 -1.85982,0.346014 -3.63314,1.427306 0,0.0865 -0.0433,0.129755 1.2543,0.778531 3.20062,1.340803 1.94633,0.562272 3.02762,0.865034 1.0813,0.25951 1.77332,0.519021 0.69203,0.25951 1.2543,0.51902 0.51902,0.25951 0.99479,0.648775 1.1678,0.908286 0.95154,1.946327 -0.60552,2.508599 -4.45493,3.243878 -2.24908,0.432517 -6.01198,0.129755 -0.25951,-0.04325 -0.73528,-0.04325 -0.47577,0 -0.99479,-0.0865 -1.3408,-0.173007 -1.60031,-0.648776 -0.25951,-0.778531 0.0433,-1.038041 0.34601,-0.302762 0.64877,-0.302762 0.30277,0 0.56228,0.173007 1.08129,0 2.6816,0.173007 1.60031,0.129755 3.20063,0.173007 3.89265,-0.04325 4.84419,-1.903075 -0.51902,-0.865034 -4.75769,-2.249089 -4.80094,-1.513809 -6.05524,-2.378843 -0.47577,-0.475769 -0.38926,-0.865034 0.0865,-0.389265 0.12975,-0.648776 0.0865,-0.562272 0.25951,-0.821782 1.85983,-2.03283 6.74727,-2.205837 1.2543,-0.04325 2.33559,-0.129755 z"
           style="font-style:normal;font-variant:normal;font-weight:normal;font-stretch:normal;font-size:43.2517px;font-family:Karumbi;-inkscape-font-specification:Karumbi;text-align:center;word-spacing:-4.50763px;text-anchor:middle;fill:#aa0000;stroke:#aa0000;stroke-width:2.225;stroke-miterlimit:4;stroke-dasharray:none;stroke-opacity:1"
           id="path1883" />
        <path
           d="m 220.10134,41.84411 q -0.12976,3.633143 -0.77853,7.136531 0,0.173007 -0.25951,1.513809 -0.86504,4.152164 -2.94112,8.261075 -0.51902,0.692028 -1.12454,0.346014 -0.60553,-0.346014 -0.43252,-1.081293 1.73007,-3.503387 2.76811,-8.088068 -1.98958,0.04325 -4.10891,0.25951 -2.11934,0.216259 -3.89266,1.124545 -0.34601,3.589891 -0.95153,6.747265 -0.30277,0.735279 -0.95154,0.648776 -0.60553,-0.0865 -0.73528,-0.865034 0.51902,-3.114123 0.86503,-6.09849 -0.34601,-0.216259 -0.38926,-0.648776 -0.0433,-0.432517 0.21626,-0.605524 0.25951,-0.173006 0.34601,-0.25951 0.21626,-2.378843 0.30276,-6.271497 -0.51902,-0.346013 -0.38926,-0.908285 0.12975,-0.562272 0.90828,-0.648776 1.38406,0 1.21105,2.076082 -0.0433,0.692027 -0.0865,2.29234 -0.0433,1.557061 -0.12976,2.55185 1.90308,-0.735279 4.02241,-0.865034 2.11933,-0.173006 4.10891,-0.25951 0.47577,-2.508599 0.69203,-6.314748 0.17301,-0.778531 0.82178,-0.778531 0.64878,0 0.90829,0.735279 z"
           style="font-style:normal;font-variant:normal;font-weight:normal;font-stretch:normal;font-size:43.2517px;font-family:Karumbi;-inkscape-font-specification:Karumbi;text-align:center;word-spacing:-4.50763px;text-anchor:middle;fill:#aa0000;stroke:#aa0000;stroke-width:2.225;stroke-miterlimit:4;stroke-dasharray:none;stroke-opacity:1"
           id="path1885" />
        <path
           d="m 228.18937,57.457974 q -2.11933,-1.340802 -1.3408,-7.352789 0.21626,-1.600313 0.56227,-3.027619 0.34602,-1.427306 0.69203,-2.941116 -0.17301,-0.735279 0.47577,-1.038041 0.56227,-0.302762 0.95154,0.173007 0.38926,0.475769 0.34601,0.865034 0,0.389266 -0.12976,0.778531 -0.12975,0.389265 -0.30276,0.77853 -0.17301,0.389266 -0.30276,0.99479 -0.12976,0.562272 -0.38927,1.816571 -0.21625,1.254299 -0.38926,2.638354 -0.38927,3.330381 0.38926,4.627932 0.69203,1.167796 3.41689,-1.51381 1.60031,-1.773319 2.6816,-3.892653 1.0813,-2.119333 1.64357,-3.546639 0.60552,-1.470558 0.90828,-2.465347 0.30277,-1.038041 0.86504,-1.643565 0.77853,-0.51902 1.2543,0 0.51902,0.475769 0,1.254299 -0.34602,0.346014 -0.95154,1.946327 -0.60552,1.600313 -1.51381,3.589891 -2.37884,5.319959 -4.93069,7.179783 -2.4221,1.730068 -3.93591,0.77853 z"
           style="font-style:normal;font-variant:normal;font-weight:normal;font-stretch:normal;font-size:43.2517px;font-family:Karumbi;-inkscape-font-specification:Karumbi;text-align:center;word-spacing:-4.50763px;text-anchor:middle;fill:#aa0000;stroke:#aa0000;stroke-width:2.225;stroke-miterlimit:4;stroke-dasharray:none;stroke-opacity:1"
           id="path1887" />
        <path
           d="m 246.74432,46.16928 q 0.43251,-1.470558 0.47576,-1.859823 0.0865,-0.432517 0,-0.821782 -0.0433,-0.389266 0.0433,-0.475769 0.0433,-0.562272 0.43251,-0.821782 0.43252,-0.259511 0.99479,0.173006 0.17301,0.259511 0.21626,0.389266 2.03283,-0.475769 3.89265,-0.475769 1.85983,-0.04325 3.93591,0.778531 0.34601,0.25951 0.43252,0.648775 0.173,0.951538 0,1.686817 -0.17301,0.735278 -1.2543,1.686816 -1.0813,0.951537 -2.46535,1.730068 -2.98437,1.643565 -4.93069,1.730068 -0.47577,0 -0.90829,-0.129755 -0.34601,1.989578 -0.82178,3.979156 -0.43252,1.946327 -1.38406,3.633143 -0.47577,0.735279 -1.21104,0.259511 -0.64878,-0.432517 -0.21626,-1.2543 0.90828,-1.643564 1.29755,-3.546639 0.43251,-1.946327 0.77853,-3.892653 -0.12976,-0.346014 0.0865,-0.648776 0.17301,-1.340803 0.60553,-2.768109 z m 2.24908,-1.686816 q -0.12975,0.692027 -0.34601,1.340803 -0.21626,0.605523 -0.34601,1.124544 -0.0865,0.475769 -0.21626,0.908286 -0.0865,0.389265 -0.17301,0.865034 0.69203,0.173006 2.07608,-0.346014 1.42731,-0.562272 2.59511,-1.124544 2.94111,-1.600313 2.94111,-2.811361 -1.60031,-0.605524 -3.24388,-0.475769 -1.64356,0.129756 -3.28713,0.519021 z"
           style="font-style:normal;font-variant:normal;font-weight:normal;font-stretch:normal;font-size:43.2517px;font-family:Karumbi;-inkscape-font-specification:Karumbi;text-align:center;word-spacing:-4.50763px;text-anchor:middle;fill:#aa0000;stroke:#aa0000;stroke-width:2.225;stroke-miterlimit:4;stroke-dasharray:none;stroke-opacity:1"
           id="path1889" />
      </g>
    </g>
  </g>
</svg>
